<mxfile host="65bd71144e">
    <diagram name="基本アーキテクチャ図(2)" id="kNQ7hPWD0Lw1mM555jFB">
        <mxGraphModel dx="1786" dy="1179" grid="1" gridSize="10" guides="1" tooltips="1" connect="1" arrows="1" fold="1" page="0" pageScale="1" pageWidth="827" pageHeight="1169" math="0" shadow="0">
            <root>
                <mxCell id="fxQP5-2Rpk5uUzQ9qzvW-0"/>
                <mxCell id="0" value="枠組み" style="" parent="fxQP5-2Rpk5uUzQ9qzvW-0"/>
                <mxCell id="1947" value="" style="group" parent="0" vertex="1" connectable="0">
                    <mxGeometry x="-236" y="80" width="1086" height="650" as="geometry"/>
                </mxCell>
                <mxCell id="1" value="" style="rounded=0;whiteSpace=wrap;html=1;labelBackgroundColor=none;fontSize=11;fillColor=none;dashed=1;container=0;strokeColor=#FF99CC;" parent="1947" vertex="1">
                    <mxGeometry y="3" width="1086" height="647" as="geometry"/>
                </mxCell>
                <mxCell id="9" value="&lt;font style=&quot;font-size: 11px;&quot;&gt;a) ：ロードマップ新規作成&lt;/font&gt;" style="text;strokeColor=none;align=left;fillColor=none;html=1;verticalAlign=middle;whiteSpace=wrap;rounded=0;labelBackgroundColor=none;fontSize=10;" parent="1947" vertex="1">
                    <mxGeometry width="276" height="20" as="geometry"/>
                </mxCell>
                <mxCell id="1950" value="取得" style="text;strokeColor=none;align=left;fillColor=none;html=1;verticalAlign=middle;whiteSpace=wrap;rounded=0;labelBackgroundColor=none;fontSize=10;" parent="1947" vertex="1">
                    <mxGeometry x="456" y="520" width="30" height="30" as="geometry"/>
                </mxCell>
                <mxCell id="2" value="" style="group" parent="0" vertex="1" connectable="0">
                    <mxGeometry x="430" y="120" width="280" height="580" as="geometry"/>
                </mxCell>
                <mxCell id="3" value="&lt;div style=&quot;&quot;&gt;&lt;br&gt;&lt;/div&gt;" style="rounded=0;whiteSpace=wrap;html=1;labelBackgroundColor=none;strokeColor=#009900;fontSize=11;fontColor=#FFFFFF;fillColor=none;dashed=1;strokeWidth=3;align=right;labelPosition=left;verticalLabelPosition=top;verticalAlign=bottom;" parent="2" vertex="1">
                    <mxGeometry x="1.08" y="1" width="278.92" height="579" as="geometry"/>
                </mxCell>
                <mxCell id="4" value="M" style="text;strokeColor=#005700;align=center;fillColor=#008a00;html=1;verticalAlign=middle;whiteSpace=wrap;rounded=0;labelBackgroundColor=none;fontSize=20;fontColor=#ffffff;" parent="2" vertex="1">
                    <mxGeometry width="21.576763485477176" height="20" as="geometry"/>
                </mxCell>
                <mxCell id="1944" value="" style="group" parent="0" vertex="1" connectable="0">
                    <mxGeometry x="-80" y="580" width="250" height="171" as="geometry"/>
                </mxCell>
                <mxCell id="7" value="&lt;div style=&quot;&quot;&gt;&lt;br&gt;&lt;/div&gt;" style="rounded=0;whiteSpace=wrap;html=1;labelBackgroundColor=none;strokeColor=#009900;fontSize=11;fontColor=#FFFFFF;fillColor=none;dashed=1;strokeWidth=3;align=right;labelPosition=left;verticalLabelPosition=top;verticalAlign=bottom;" parent="1944" vertex="1">
                    <mxGeometry x="1" y="1" width="249" height="79" as="geometry"/>
                </mxCell>
                <mxCell id="8" value="V" style="text;strokeColor=#005700;align=center;fillColor=#008a00;html=1;verticalAlign=middle;whiteSpace=wrap;rounded=0;labelBackgroundColor=none;fontSize=20;fontColor=#ffffff;" parent="1944" vertex="1">
                    <mxGeometry width="20" height="20" as="geometry"/>
                </mxCell>
                <mxCell id="1946" value="" style="group" parent="0" vertex="1" connectable="0">
                    <mxGeometry x="-80" y="120" width="250" height="360" as="geometry"/>
                </mxCell>
                <mxCell id="5" value="&lt;div style=&quot;&quot;&gt;&lt;br&gt;&lt;/div&gt;" style="rounded=0;whiteSpace=wrap;html=1;labelBackgroundColor=none;strokeColor=#009900;fontSize=11;fontColor=#FFFFFF;fillColor=none;dashed=1;strokeWidth=3;align=right;labelPosition=left;verticalLabelPosition=top;verticalAlign=bottom;" parent="1946" vertex="1">
                    <mxGeometry x="1" y="1" width="249" height="359" as="geometry"/>
                </mxCell>
                <mxCell id="6" value="C" style="text;strokeColor=#005700;align=center;fillColor=#008a00;html=1;verticalAlign=middle;whiteSpace=wrap;rounded=0;labelBackgroundColor=none;fontSize=20;fontColor=#ffffff;" parent="1946" vertex="1">
                    <mxGeometry width="20" height="20" as="geometry"/>
                </mxCell>
                <mxCell id="fxQP5-2Rpk5uUzQ9qzvW-1" style="" parent="fxQP5-2Rpk5uUzQ9qzvW-0"/>
                <mxCell id="n8tdfDY55hou1CKn_ImN-23" value="③ロードマップ作成・保存機能" style="rounded=1;whiteSpace=wrap;html=1;labelBackgroundColor=none;strokeColor=default;fontSize=11;fontColor=#FFFFFF;fillColor=#808080;" parent="fxQP5-2Rpk5uUzQ9qzvW-1" vertex="1">
                    <mxGeometry x="-260" y="20" width="160" height="40" as="geometry"/>
                </mxCell>
                <mxCell id="fxQP5-2Rpk5uUzQ9qzvW-98" value="" style="group" parent="fxQP5-2Rpk5uUzQ9qzvW-1" vertex="1" connectable="0">
                    <mxGeometry x="-260" y="-350" width="473.5" height="330" as="geometry"/>
                </mxCell>
                <mxCell id="fxQP5-2Rpk5uUzQ9qzvW-99" value="" style="rounded=1;whiteSpace=wrap;html=1;labelBackgroundColor=none;fillStyle=auto;strokeColor=#F0F0F0;fontFamily=Helvetica;fontSize=10;fontColor=#FFFFFF;fillColor=#808080;container=0;" parent="fxQP5-2Rpk5uUzQ9qzvW-98" vertex="1">
                    <mxGeometry width="460" height="330" as="geometry"/>
                </mxCell>
                <mxCell id="fxQP5-2Rpk5uUzQ9qzvW-100" value="" style="rounded=0;whiteSpace=wrap;html=1;labelBackgroundColor=none;strokeColor=#FF99CC;fontSize=11;fontColor=#FFFFFF;fillColor=none;dashed=1;container=0;" parent="fxQP5-2Rpk5uUzQ9qzvW-98" vertex="1">
                    <mxGeometry x="262" y="140" width="30" height="17" as="geometry"/>
                </mxCell>
                <mxCell id="fxQP5-2Rpk5uUzQ9qzvW-101" value="M or V or C" style="rounded=0;whiteSpace=wrap;html=1;labelBackgroundColor=none;strokeColor=#009900;fontSize=11;fontColor=#FFFFFF;fillColor=none;dashed=1;strokeWidth=2;container=0;" parent="fxQP5-2Rpk5uUzQ9qzvW-98" vertex="1">
                    <mxGeometry x="231" y="168" width="62.5" height="19" as="geometry"/>
                </mxCell>
                <mxCell id="fxQP5-2Rpk5uUzQ9qzvW-102" value="&lt;font color=&quot;#ffffff&quot;&gt;OOOServlet&lt;/font&gt;" style="rounded=0;whiteSpace=wrap;html=1;labelBackgroundColor=none;fillStyle=auto;strokeColor=#F0F0F0;fontFamily=Helvetica;fontSize=10;fontColor=#007FFF;fillColor=#0066CC;container=0;" parent="fxQP5-2Rpk5uUzQ9qzvW-98" vertex="1">
                    <mxGeometry x="10" y="87.5" width="70" height="15" as="geometry"/>
                </mxCell>
                <mxCell id="fxQP5-2Rpk5uUzQ9qzvW-103" value="：サーブレットクラス" style="text;strokeColor=none;align=left;fillColor=none;html=1;verticalAlign=middle;whiteSpace=wrap;rounded=0;labelBackgroundColor=none;container=0;" parent="fxQP5-2Rpk5uUzQ9qzvW-98" vertex="1">
                    <mxGeometry x="81" y="82" width="129" height="30" as="geometry"/>
                </mxCell>
                <mxCell id="fxQP5-2Rpk5uUzQ9qzvW-104" value="&lt;font color=&quot;#ffffff&quot;&gt;OOO.jsp&lt;/font&gt;" style="rounded=0;whiteSpace=wrap;html=1;labelBackgroundColor=none;fillStyle=auto;strokeColor=#F0F0F0;fontFamily=Helvetica;fontSize=10;fontColor=#007FFF;fillColor=#4D9900;container=0;" parent="fxQP5-2Rpk5uUzQ9qzvW-98" vertex="1">
                    <mxGeometry x="10" y="122.5" width="70" height="15" as="geometry"/>
                </mxCell>
                <mxCell id="fxQP5-2Rpk5uUzQ9qzvW-105" value="：JSPファイル" style="text;strokeColor=none;align=left;fillColor=none;html=1;verticalAlign=middle;whiteSpace=wrap;rounded=0;labelBackgroundColor=none;container=0;" parent="fxQP5-2Rpk5uUzQ9qzvW-98" vertex="1">
                    <mxGeometry x="81" y="115" width="129" height="30" as="geometry"/>
                </mxCell>
                <mxCell id="fxQP5-2Rpk5uUzQ9qzvW-106" value="&lt;font color=&quot;#ffffff&quot;&gt;R or S or A&lt;/font&gt;" style="rounded=0;whiteSpace=wrap;html=1;labelBackgroundColor=none;fillStyle=auto;strokeColor=#F0F0F0;fontFamily=Helvetica;fontSize=10;fontColor=#007FFF;fillColor=#999900;container=0;" parent="fxQP5-2Rpk5uUzQ9qzvW-98" vertex="1">
                    <mxGeometry x="10" y="277" width="70" height="15" as="geometry"/>
                </mxCell>
                <mxCell id="fxQP5-2Rpk5uUzQ9qzvW-107" value="：スコープ&lt;br&gt;(R：Request, S：Session, A：Application)" style="text;strokeColor=none;align=left;fillColor=none;html=1;verticalAlign=middle;whiteSpace=wrap;rounded=0;labelBackgroundColor=none;container=0;" parent="fxQP5-2Rpk5uUzQ9qzvW-98" vertex="1">
                    <mxGeometry x="82.5" y="277" width="149" height="43" as="geometry"/>
                </mxCell>
                <mxCell id="fxQP5-2Rpk5uUzQ9qzvW-108" value="GET" style="text;strokeColor=default;align=center;fillColor=none;html=1;verticalAlign=middle;whiteSpace=wrap;rounded=0;labelBackgroundColor=none;fontSize=10;container=0;" parent="fxQP5-2Rpk5uUzQ9qzvW-98" vertex="1">
                    <mxGeometry x="262.5" y="18.5" width="30" height="15" as="geometry"/>
                </mxCell>
                <mxCell id="fxQP5-2Rpk5uUzQ9qzvW-109" value="：処理内容&lt;br&gt;　(GET,、POST、レスポンス &lt;br&gt;　 フォワード、リダイレクト)" style="text;strokeColor=none;align=left;fillColor=none;html=1;verticalAlign=middle;whiteSpace=wrap;rounded=0;labelBackgroundColor=none;container=0;" parent="fxQP5-2Rpk5uUzQ9qzvW-98" vertex="1">
                    <mxGeometry x="291.5" y="12" width="180" height="55" as="geometry"/>
                </mxCell>
                <mxCell id="fxQP5-2Rpk5uUzQ9qzvW-110" value="" style="text;strokeColor=#990000;align=center;fillColor=none;html=1;verticalAlign=middle;whiteSpace=wrap;rounded=0;labelBackgroundColor=none;fontSize=10;dashed=1;strokeWidth=2;perimeterSpacing=0;dashPattern=1 1;glass=1;container=0;" parent="fxQP5-2Rpk5uUzQ9qzvW-98" vertex="1">
                    <mxGeometry x="262.5" y="75.5" width="30" height="15" as="geometry"/>
                </mxCell>
                <mxCell id="fxQP5-2Rpk5uUzQ9qzvW-111" value="：リクエストパラメータ" style="text;strokeColor=none;align=left;fillColor=none;html=1;verticalAlign=middle;whiteSpace=wrap;rounded=0;labelBackgroundColor=none;container=0;" parent="fxQP5-2Rpk5uUzQ9qzvW-98" vertex="1">
                    <mxGeometry x="291.5" y="69" width="180" height="28" as="geometry"/>
                </mxCell>
                <mxCell id="fxQP5-2Rpk5uUzQ9qzvW-112" value="" style="text;strokeColor=default;align=center;fillColor=none;html=1;verticalAlign=middle;whiteSpace=wrap;rounded=0;labelBackgroundColor=none;fontSize=10;dashed=1;strokeWidth=2;perimeterSpacing=0;dashPattern=1 1;glass=1;container=0;" parent="fxQP5-2Rpk5uUzQ9qzvW-98" vertex="1">
                    <mxGeometry x="262.5" y="109" width="30" height="15" as="geometry"/>
                </mxCell>
                <mxCell id="fxQP5-2Rpk5uUzQ9qzvW-113" value="：処理補足" style="text;strokeColor=none;align=left;fillColor=none;html=1;verticalAlign=middle;whiteSpace=wrap;rounded=0;labelBackgroundColor=none;container=0;" parent="fxQP5-2Rpk5uUzQ9qzvW-98" vertex="1">
                    <mxGeometry x="291.5" y="102" width="180" height="28" as="geometry"/>
                </mxCell>
                <mxCell id="fxQP5-2Rpk5uUzQ9qzvW-114" value="：パラメータの&lt;br&gt;　スコープへの保存と取出" style="text;strokeColor=none;align=left;fillColor=none;html=1;verticalAlign=middle;whiteSpace=wrap;rounded=0;labelBackgroundColor=none;container=0;" parent="fxQP5-2Rpk5uUzQ9qzvW-98" vertex="1">
                    <mxGeometry x="81" y="50" width="169" height="30" as="geometry"/>
                </mxCell>
                <mxCell id="fxQP5-2Rpk5uUzQ9qzvW-115" value="" style="endArrow=async;html=1;rounded=0;shadow=1;labelBackgroundColor=default;strokeColor=#82b366;fontFamily=Helvetica;fontSize=10;fontColor=#FFFFFF;shape=connector;strokeWidth=1;startArrow=none;startFill=0;fillColor=#d5e8d4;jumpStyle=line;jumpSize=10;entryX=0;entryY=0.25;entryDx=0;entryDy=0;dashed=1;endFill=1;" parent="fxQP5-2Rpk5uUzQ9qzvW-98" edge="1">
                    <mxGeometry width="50" height="50" relative="1" as="geometry">
                        <mxPoint x="14" y="58" as="sourcePoint"/>
                        <mxPoint x="76" y="58.875" as="targetPoint"/>
                    </mxGeometry>
                </mxCell>
                <mxCell id="fxQP5-2Rpk5uUzQ9qzvW-116" value="：機能ごとの括り" style="text;strokeColor=none;align=left;fillColor=none;html=1;verticalAlign=middle;whiteSpace=wrap;rounded=0;labelBackgroundColor=none;container=0;" parent="fxQP5-2Rpk5uUzQ9qzvW-98" vertex="1">
                    <mxGeometry x="292.5" y="133.5" width="180" height="28" as="geometry"/>
                </mxCell>
                <mxCell id="fxQP5-2Rpk5uUzQ9qzvW-117" value="：処理領域ごとの括り&lt;br&gt;　M：モデル層&lt;br&gt;　V：ビュー層&lt;br&gt;　C：コントローラ層" style="text;strokeColor=none;align=left;fillColor=none;html=1;verticalAlign=middle;whiteSpace=wrap;rounded=0;labelBackgroundColor=none;container=0;" parent="fxQP5-2Rpk5uUzQ9qzvW-98" vertex="1">
                    <mxGeometry x="293.5" y="148" width="180" height="102" as="geometry"/>
                </mxCell>
                <mxCell id="fxQP5-2Rpk5uUzQ9qzvW-118" value="" style="endArrow=classic;startArrow=classic;html=1;rounded=0;fontSize=10;jumpStyle=line;jumpSize=10;strokeWidth=3;" parent="fxQP5-2Rpk5uUzQ9qzvW-98" edge="1">
                    <mxGeometry width="50" height="50" relative="1" as="geometry">
                        <mxPoint x="11" y="26" as="sourcePoint"/>
                        <mxPoint x="80" y="26" as="targetPoint"/>
                    </mxGeometry>
                </mxCell>
                <mxCell id="fxQP5-2Rpk5uUzQ9qzvW-119" value="：データベースとの連係" style="text;strokeColor=none;align=left;fillColor=none;html=1;verticalAlign=middle;whiteSpace=wrap;rounded=0;labelBackgroundColor=none;container=0;" parent="fxQP5-2Rpk5uUzQ9qzvW-98" vertex="1">
                    <mxGeometry x="81" y="20" width="159" height="13" as="geometry"/>
                </mxCell>
                <mxCell id="fxQP5-2Rpk5uUzQ9qzvW-120" value="&lt;font color=&quot;#ffffff&quot;&gt;BO&lt;/font&gt;" style="rounded=0;whiteSpace=wrap;html=1;labelBackgroundColor=none;fillStyle=auto;strokeColor=#3700CC;fontFamily=Helvetica;fontSize=10;fontColor=#ffffff;fillColor=#6a00ff;container=0;" parent="fxQP5-2Rpk5uUzQ9qzvW-98" vertex="1">
                    <mxGeometry x="10" y="159.5" width="70" height="15" as="geometry"/>
                </mxCell>
                <mxCell id="fxQP5-2Rpk5uUzQ9qzvW-121" value="：BO(business Object)&lt;br&gt;　サービス層の動き" style="text;strokeColor=none;align=left;fillColor=none;html=1;verticalAlign=middle;whiteSpace=wrap;rounded=0;labelBackgroundColor=none;container=0;" parent="fxQP5-2Rpk5uUzQ9qzvW-98" vertex="1">
                    <mxGeometry x="81" y="158" width="129" height="30" as="geometry"/>
                </mxCell>
                <mxCell id="fxQP5-2Rpk5uUzQ9qzvW-122" value="&lt;font color=&quot;#ffffff&quot;&gt;DAO&lt;/font&gt;" style="rounded=0;whiteSpace=wrap;html=1;labelBackgroundColor=none;fillStyle=auto;strokeColor=#6F0000;fontFamily=Helvetica;fontSize=10;fontColor=#ffffff;fillColor=#a20025;container=0;" parent="fxQP5-2Rpk5uUzQ9qzvW-98" vertex="1">
                    <mxGeometry x="10" y="194.5" width="70" height="15" as="geometry"/>
                </mxCell>
                <mxCell id="fxQP5-2Rpk5uUzQ9qzvW-123" value="：DAO&lt;br&gt;　(Database Access Object)" style="text;strokeColor=none;align=left;fillColor=none;html=1;verticalAlign=middle;whiteSpace=wrap;rounded=0;labelBackgroundColor=none;container=0;" parent="fxQP5-2Rpk5uUzQ9qzvW-98" vertex="1">
                    <mxGeometry x="81" y="193" width="169" height="30" as="geometry"/>
                </mxCell>
                <mxCell id="fxQP5-2Rpk5uUzQ9qzvW-124" value="&lt;font color=&quot;#ffffff&quot;&gt;OO&lt;/font&gt;" style="rounded=0;whiteSpace=wrap;html=1;labelBackgroundColor=none;fillStyle=auto;strokeColor=#C73500;fontFamily=Helvetica;fontSize=10;fillColor=#fa6800;container=0;fontColor=#000000;" parent="fxQP5-2Rpk5uUzQ9qzvW-98" vertex="1">
                    <mxGeometry x="10" y="228.5" width="70" height="15" as="geometry"/>
                </mxCell>
                <mxCell id="fxQP5-2Rpk5uUzQ9qzvW-125" value="：その他のクラス&lt;br&gt;　(サービス層、&lt;br&gt;　インフラストラクチャ層)" style="text;strokeColor=none;align=left;fillColor=none;html=1;verticalAlign=middle;whiteSpace=wrap;rounded=0;labelBackgroundColor=none;container=0;" parent="fxQP5-2Rpk5uUzQ9qzvW-98" vertex="1">
                    <mxGeometry x="81" y="227" width="169" height="43" as="geometry"/>
                </mxCell>
                <mxCell id="fxQP5-2Rpk5uUzQ9qzvW-150" style="edgeStyle=none;html=1;entryX=0;entryY=0.5;entryDx=0;entryDy=0;fontSize=10;fillColor=none;" parent="fxQP5-2Rpk5uUzQ9qzvW-1" target="fxQP5-2Rpk5uUzQ9qzvW-137" edge="1">
                    <mxGeometry relative="1" as="geometry">
                        <mxPoint x="-200" y="173" as="sourcePoint"/>
                        <mxPoint x="-106" y="180" as="targetPoint"/>
                    </mxGeometry>
                </mxCell>
                <mxCell id="fxQP5-2Rpk5uUzQ9qzvW-152" value="&lt;span style=&quot;font-size: 11px;&quot;&gt;userId&lt;/span&gt;" style="text;strokeColor=none;align=left;fillColor=none;html=1;verticalAlign=middle;whiteSpace=wrap;rounded=0;labelBackgroundColor=none;fontSize=10;" parent="fxQP5-2Rpk5uUzQ9qzvW-1" vertex="1">
                    <mxGeometry x="215" y="147.5" width="30" height="20" as="geometry"/>
                </mxCell>
                <mxCell id="fxQP5-2Rpk5uUzQ9qzvW-154" value="&lt;span style=&quot;font-size: 11px;&quot;&gt;該当：int max&lt;br&gt;非該当：0&lt;br&gt;&lt;/span&gt;" style="text;strokeColor=none;align=left;fillColor=none;html=1;verticalAlign=middle;whiteSpace=wrap;rounded=0;labelBackgroundColor=none;fontSize=10;" parent="fxQP5-2Rpk5uUzQ9qzvW-1" vertex="1">
                    <mxGeometry x="193.5" y="185.5" width="73" height="20" as="geometry"/>
                </mxCell>
                <mxCell id="fxQP5-2Rpk5uUzQ9qzvW-159" style="edgeStyle=none;rounded=0;html=1;exitX=0;exitY=0.5;exitDx=0;exitDy=0;fontSize=11;fontColor=#000000;" parent="fxQP5-2Rpk5uUzQ9qzvW-1" source="fxQP5-2Rpk5uUzQ9qzvW-187" edge="1">
                    <mxGeometry relative="1" as="geometry">
                        <mxPoint x="-200" y="632" as="targetPoint"/>
                    </mxGeometry>
                </mxCell>
                <mxCell id="fxQP5-2Rpk5uUzQ9qzvW-169" value="&lt;span style=&quot;color: rgb(255, 255, 255);&quot;&gt;S：&lt;/span&gt;&lt;br style=&quot;color: rgb(255, 255, 255);&quot;&gt;&lt;span style=&quot;color: rgb(255, 255, 255);&quot;&gt;&quot;roadmaps&quot;&lt;/span&gt;&lt;span style=&quot;color: rgb(255, 255, 255);&quot;&gt;&amp;nbsp;Roadmapインスタンスのリスト&lt;/span&gt;&lt;span style=&quot;color: rgb(255, 255, 255);&quot;&gt;&lt;br&gt;&lt;/span&gt;&lt;span style=&quot;color: rgb(255, 255, 255);&quot;&gt;&quot;currentRoadmapId&quot; 表示中のRoadmapIdインスタンス&lt;br&gt;&lt;/span&gt;&lt;span style=&quot;color: rgb(255, 255, 255);&quot;&gt;ここでは(戻り値+1)をセット&lt;/span&gt;&lt;span style=&quot;color: rgb(255, 255, 255);&quot;&gt;&lt;br&gt;&lt;/span&gt;" style="rounded=0;whiteSpace=wrap;html=1;labelBackgroundColor=none;fillStyle=auto;strokeColor=#F0F0F0;fontFamily=Helvetica;fontSize=10;fontColor=#007FFF;fillColor=#999900;align=left;" parent="fxQP5-2Rpk5uUzQ9qzvW-1" vertex="1">
                    <mxGeometry x="217" y="288" width="263" height="50" as="geometry"/>
                </mxCell>
                <mxCell id="fxQP5-2Rpk5uUzQ9qzvW-174" value="" style="group" parent="fxQP5-2Rpk5uUzQ9qzvW-1" vertex="1" connectable="0">
                    <mxGeometry x="743.5" y="132.25" width="73" height="104.75" as="geometry"/>
                </mxCell>
                <mxCell id="fxQP5-2Rpk5uUzQ9qzvW-175" value="" style="shape=cylinder3;whiteSpace=wrap;html=1;boundedLbl=1;backgroundOutline=1;size=15;fontSize=11;fillColor=#f5f5f5;fontColor=#333333;strokeColor=#666666;" parent="fxQP5-2Rpk5uUzQ9qzvW-174" vertex="1">
                    <mxGeometry x="5.5" width="60" height="80" as="geometry"/>
                </mxCell>
                <mxCell id="fxQP5-2Rpk5uUzQ9qzvW-176" value="&lt;span style=&quot;font-size: 11px;&quot;&gt;ROADMAP_IDS&lt;/span&gt;&lt;br style=&quot;font-size: 11px;&quot;&gt;&lt;span style=&quot;font-size: 11px;&quot;&gt;テーブル&lt;/span&gt;&lt;span style=&quot;font-size: 11px;&quot;&gt;&lt;br&gt;&lt;/span&gt;" style="text;strokeColor=none;align=center;fillColor=none;html=1;verticalAlign=middle;whiteSpace=wrap;rounded=0;labelBackgroundColor=none;fontSize=10;" parent="fxQP5-2Rpk5uUzQ9qzvW-174" vertex="1">
                    <mxGeometry y="84.75" width="73" height="20" as="geometry"/>
                </mxCell>
                <mxCell id="fxQP5-2Rpk5uUzQ9qzvW-192" value="&lt;span style=&quot;font-size: 11px;&quot;&gt;uuid&lt;/span&gt;" style="text;strokeColor=none;align=left;fillColor=none;html=1;verticalAlign=middle;whiteSpace=wrap;rounded=0;labelBackgroundColor=none;fontSize=10;" parent="fxQP5-2Rpk5uUzQ9qzvW-1" vertex="1">
                    <mxGeometry x="473.82219917012446" y="140" width="32.365145228215766" height="20" as="geometry"/>
                </mxCell>
                <mxCell id="fxQP5-2Rpk5uUzQ9qzvW-193" value="&lt;span style=&quot;font-size: 11px;&quot;&gt;該当：int max&lt;br&gt;非該当：0&lt;br&gt;&lt;/span&gt;" style="text;strokeColor=none;align=left;fillColor=none;html=1;verticalAlign=middle;whiteSpace=wrap;rounded=0;labelBackgroundColor=none;fontSize=10;" parent="fxQP5-2Rpk5uUzQ9qzvW-1" vertex="1">
                    <mxGeometry x="449.34000000000003" y="190" width="81.33" height="20" as="geometry"/>
                </mxCell>
                <mxCell id="fxQP5-2Rpk5uUzQ9qzvW-199" value="" style="group" parent="fxQP5-2Rpk5uUzQ9qzvW-1" vertex="1" connectable="0">
                    <mxGeometry x="282.07" y="140" width="107.93" height="40" as="geometry"/>
                </mxCell>
                <mxCell id="fxQP5-2Rpk5uUzQ9qzvW-200" value="&lt;span style=&quot;font-size: 11px;&quot;&gt;BO&lt;/span&gt;" style="text;strokeColor=none;align=left;fillColor=none;html=1;verticalAlign=middle;whiteSpace=wrap;rounded=0;labelBackgroundColor=none;fontSize=10;" parent="fxQP5-2Rpk5uUzQ9qzvW-199" vertex="1">
                    <mxGeometry x="35.94476310399711" width="38.6082606071787" height="20" as="geometry"/>
                </mxCell>
                <mxCell id="fxQP5-2Rpk5uUzQ9qzvW-201" value="&lt;span style=&quot;text-align: start;&quot;&gt;&lt;font face=&quot;monospace&quot; color=&quot;rgba(0, 0, 0, 0)&quot;&gt;&lt;span style=&quot;font-size: 0px;&quot;&gt;%3CmxGraphModel%3E%3Croot%3E%3CmxCell%20id%3D%220%22%2F%3E%3CmxCell%20id%3D%221%22%20parent%3D%220%22%2F%3E%3CmxCell%20id%3D%222%22%20value%3D%22%26lt%3Bfont%20color%3D%26quot%3B%23ffffff%26quot%3B%26gt%3BS%EF%BC%9A%26lt%3Bbr%26gt%3B%26lt%3B%2Ffont%26gt%3B%26lt%3Bspan%20style%3D%26quot%3Bcolor%3A%20rgb(255%2C%20255%2C%20255)%3B%26quot%3B%26gt%3B%26quot%3BuserId%26quot%3B%20%E3%83%A6%E3%83%BC%E3%82%B6%E3%83%BCID%26lt%3Bbr%26gt%3B%26lt%3B%2Fspan%26gt%3B%22%20style%3D%22rounded%3D0%3BwhiteSpace%3Dwrap%3Bhtml%3D1%3BlabelBackgroundColor%3Dnone%3BfillStyle%3Dauto%3BstrokeColor%3D%23F0F0F0%3BfontFamily%3DHelvetica%3BfontSize%3D10%3BfontColor%3D%23007FFF%3BfillColor%3D%23999900%3Balign%3Dleft%3B%22%20vertex%3D%221%22%20parent%3D%221%22%3E%3CmxGeometry%20x%3D%22116.5%22%20y%3D%222320%22%20width%3D%22103.5%22%20height%3D%2230%22%20as%3D%22geometry%22%2F%3E%3C%2FmxCell%3E%3C%2Froot%3E%3C%2FmxGraphModel%3Edaaaaaa&lt;/span&gt;&lt;/font&gt;&lt;/span&gt;&lt;span style=&quot;background-color: initial;&quot;&gt;RoadmapLogic&lt;/span&gt;&lt;span style=&quot;text-align: start;&quot;&gt;&lt;font face=&quot;monospace&quot; color=&quot;rgba(0, 0, 0, 0)&quot;&gt;&lt;span style=&quot;font-size: 0px;&quot;&gt;&lt;br&gt;&lt;/span&gt;&lt;/font&gt;&lt;/span&gt;findRoadmapIdMax&lt;font color=&quot;#ffffff&quot;&gt;()&lt;br&gt;&lt;/font&gt;" style="rounded=0;whiteSpace=wrap;html=1;labelBackgroundColor=none;fillStyle=auto;strokeColor=#3700CC;fontFamily=Helvetica;fontSize=10;fontColor=#ffffff;fillColor=#6a00ff;container=0;" parent="fxQP5-2Rpk5uUzQ9qzvW-199" vertex="1">
                    <mxGeometry y="20" width="107.92999999999999" height="25" as="geometry"/>
                </mxCell>
                <mxCell id="fxQP5-2Rpk5uUzQ9qzvW-202" value="" style="group" parent="fxQP5-2Rpk5uUzQ9qzvW-1" vertex="1" connectable="0">
                    <mxGeometry x="550" y="140" width="99.75" height="40" as="geometry"/>
                </mxCell>
                <mxCell id="fxQP5-2Rpk5uUzQ9qzvW-203" value="RoadmapIdsDAO&lt;br&gt;findIdMaxByUserId()" style="rounded=0;whiteSpace=wrap;html=1;labelBackgroundColor=none;fillStyle=auto;strokeColor=#6F0000;fontFamily=Helvetica;fontSize=10;fontColor=#ffffff;fillColor=#a20025;container=0;" parent="fxQP5-2Rpk5uUzQ9qzvW-202" vertex="1">
                    <mxGeometry y="20" width="99.75000000000003" height="25" as="geometry"/>
                </mxCell>
                <mxCell id="fxQP5-2Rpk5uUzQ9qzvW-204" value="&lt;span style=&quot;font-size: 11px;&quot;&gt;DAO&lt;/span&gt;" style="text;strokeColor=none;align=left;fillColor=none;html=1;verticalAlign=middle;whiteSpace=wrap;rounded=0;labelBackgroundColor=none;fontSize=10;" parent="fxQP5-2Rpk5uUzQ9qzvW-202" vertex="1">
                    <mxGeometry x="28.9484265734266" width="41.85314685314686" height="20" as="geometry"/>
                </mxCell>
                <mxCell id="fxQP5-2Rpk5uUzQ9qzvW-205" value="" style="endArrow=classic;startArrow=classic;html=1;rounded=0;fontSize=10;jumpStyle=line;jumpSize=10;strokeWidth=3;exitX=1;exitY=0.5;exitDx=0;exitDy=0;entryX=0;entryY=0.5;entryDx=0;entryDy=0;entryPerimeter=0;" parent="fxQP5-2Rpk5uUzQ9qzvW-1" source="fxQP5-2Rpk5uUzQ9qzvW-203" target="fxQP5-2Rpk5uUzQ9qzvW-175" edge="1">
                    <mxGeometry width="50" height="50" relative="1" as="geometry">
                        <mxPoint x="530" y="180.5" as="sourcePoint"/>
                        <mxPoint x="599" y="180.5" as="targetPoint"/>
                    </mxGeometry>
                </mxCell>
                <mxCell id="fxQP5-2Rpk5uUzQ9qzvW-206" style="edgeStyle=none;rounded=0;html=1;exitX=1;exitY=0.25;exitDx=0;exitDy=0;entryX=0;entryY=0.25;entryDx=0;entryDy=0;fontSize=11;fontColor=#000000;" parent="fxQP5-2Rpk5uUzQ9qzvW-1" source="fxQP5-2Rpk5uUzQ9qzvW-201" target="fxQP5-2Rpk5uUzQ9qzvW-203" edge="1">
                    <mxGeometry relative="1" as="geometry"/>
                </mxCell>
                <mxCell id="fxQP5-2Rpk5uUzQ9qzvW-207" style="edgeStyle=none;rounded=0;html=1;exitX=0;exitY=0.75;exitDx=0;exitDy=0;entryX=1;entryY=0.75;entryDx=0;entryDy=0;fontSize=11;fontColor=#000000;" parent="fxQP5-2Rpk5uUzQ9qzvW-1" source="fxQP5-2Rpk5uUzQ9qzvW-203" target="fxQP5-2Rpk5uUzQ9qzvW-201" edge="1">
                    <mxGeometry relative="1" as="geometry"/>
                </mxCell>
                <mxCell id="fxQP5-2Rpk5uUzQ9qzvW-132" style="edgeStyle=none;rounded=0;html=1;exitX=0.75;exitY=1;exitDx=0;exitDy=0;entryX=0.25;entryY=0;entryDx=0;entryDy=0;fontSize=11;fontColor=#000000;fillColor=none;" parent="fxQP5-2Rpk5uUzQ9qzvW-1" source="fxQP5-2Rpk5uUzQ9qzvW-137" target="fxQP5-2Rpk5uUzQ9qzvW-187" edge="1">
                    <mxGeometry relative="1" as="geometry">
                        <Array as="points"/>
                        <mxPoint x="83.25" y="422.5" as="targetPoint"/>
                    </mxGeometry>
                </mxCell>
                <mxCell id="fxQP5-2Rpk5uUzQ9qzvW-151" style="edgeStyle=none;rounded=0;html=1;exitX=1;exitY=0.25;exitDx=0;exitDy=0;fontSize=11;entryX=0;entryY=0.25;entryDx=0;entryDy=0;" parent="fxQP5-2Rpk5uUzQ9qzvW-1" source="fxQP5-2Rpk5uUzQ9qzvW-137" target="fxQP5-2Rpk5uUzQ9qzvW-201" edge="1">
                    <mxGeometry relative="1" as="geometry">
                        <mxPoint x="360" y="180" as="targetPoint"/>
                    </mxGeometry>
                </mxCell>
                <mxCell id="fxQP5-2Rpk5uUzQ9qzvW-153" style="edgeStyle=none;rounded=0;html=1;exitX=0;exitY=0.75;exitDx=0;exitDy=0;entryX=1;entryY=0.75;entryDx=0;entryDy=0;fontSize=11;fontColor=#000000;" parent="fxQP5-2Rpk5uUzQ9qzvW-1" source="fxQP5-2Rpk5uUzQ9qzvW-201" target="fxQP5-2Rpk5uUzQ9qzvW-137" edge="1">
                    <mxGeometry relative="1" as="geometry"/>
                </mxCell>
                <mxCell id="fxQP5-2Rpk5uUzQ9qzvW-249" value="" style="group" parent="fxQP5-2Rpk5uUzQ9qzvW-1" vertex="1" connectable="0">
                    <mxGeometry x="563.69" y="90" width="136.31" height="68.25" as="geometry"/>
                </mxCell>
                <mxCell id="fxQP5-2Rpk5uUzQ9qzvW-250" value="&lt;font color=&quot;#000000&quot;&gt;&lt;br&gt;&lt;/font&gt;" style="shape=callout;whiteSpace=wrap;html=1;perimeter=calloutPerimeter;fontSize=11;fillColor=#dae8fc;strokeColor=#6c8ebf;base=13;position2=0.47;size=30;position=0.47;align=left;" parent="fxQP5-2Rpk5uUzQ9qzvW-249" vertex="1">
                    <mxGeometry y="1.664634146341463" width="129.4945" height="66.58536585365853" as="geometry"/>
                </mxCell>
                <mxCell id="fxQP5-2Rpk5uUzQ9qzvW-251" value="userIdで検索&lt;br&gt;roadmapIdの最大値を取得" style="text;strokeColor=none;align=left;fillColor=none;html=1;verticalAlign=middle;whiteSpace=wrap;rounded=0;labelBackgroundColor=none;fontSize=10;fontColor=#000000;" parent="fxQP5-2Rpk5uUzQ9qzvW-249" vertex="1">
                    <mxGeometry y="0.7413738019169331" width="127.22266666666665" height="44.386485623003196" as="geometry"/>
                </mxCell>
                <mxCell id="fxQP5-2Rpk5uUzQ9qzvW-134" value="フォワード" style="text;strokeColor=default;align=center;fillColor=none;html=1;verticalAlign=middle;whiteSpace=wrap;rounded=0;labelBackgroundColor=none;fontSize=10;" parent="fxQP5-2Rpk5uUzQ9qzvW-1" vertex="1">
                    <mxGeometry x="68.63" y="195" width="59" height="15" as="geometry"/>
                </mxCell>
                <mxCell id="fxQP5-2Rpk5uUzQ9qzvW-136" value="" style="group" parent="fxQP5-2Rpk5uUzQ9qzvW-1" vertex="1" connectable="0">
                    <mxGeometry y="140" width="80" height="45" as="geometry"/>
                </mxCell>
                <mxCell id="fxQP5-2Rpk5uUzQ9qzvW-137" value="&lt;span style=&quot;color: rgb(255, 255, 255);&quot;&gt;RoadmapServlet&lt;/span&gt;&lt;font color=&quot;#ffffff&quot;&gt;&lt;br&gt;doPost()&lt;br&gt;&lt;/font&gt;" style="rounded=0;whiteSpace=wrap;html=1;labelBackgroundColor=none;fillStyle=auto;strokeColor=#F0F0F0;fontFamily=Helvetica;fontSize=10;fontColor=#007FFF;fillColor=#0066CC;" parent="fxQP5-2Rpk5uUzQ9qzvW-136" vertex="1">
                    <mxGeometry y="20" width="80" height="25" as="geometry"/>
                </mxCell>
                <mxCell id="fxQP5-2Rpk5uUzQ9qzvW-138" value="&lt;span style=&quot;font-size: 11px;&quot;&gt;Servlet&lt;/span&gt;" style="text;strokeColor=none;align=left;fillColor=none;html=1;verticalAlign=middle;whiteSpace=wrap;rounded=0;labelBackgroundColor=none;fontSize=10;" parent="fxQP5-2Rpk5uUzQ9qzvW-136" vertex="1">
                    <mxGeometry x="17" width="46" height="20" as="geometry"/>
                </mxCell>
                <mxCell id="fxQP5-2Rpk5uUzQ9qzvW-143" value="&lt;span style=&quot;font-size: 11px;&quot;&gt;保存&lt;br&gt;&lt;/span&gt;" style="text;strokeColor=none;align=left;fillColor=none;html=1;verticalAlign=middle;whiteSpace=wrap;rounded=0;labelBackgroundColor=none;fontSize=10;" parent="fxQP5-2Rpk5uUzQ9qzvW-1" vertex="1">
                    <mxGeometry x="110" y="310" width="30" height="30" as="geometry"/>
                </mxCell>
                <mxCell id="jS4orRgUXR0Zvrst3eFe-0" value="" style="endArrow=async;html=1;rounded=0;shadow=1;labelBackgroundColor=default;strokeColor=#82b366;fontFamily=Helvetica;fontSize=10;fontColor=#FFFFFF;shape=connector;strokeWidth=1;startArrow=none;startFill=0;fillColor=#d5e8d4;jumpStyle=line;jumpSize=10;entryX=0;entryY=0.5;entryDx=0;entryDy=0;dashed=1;endFill=1;" parent="fxQP5-2Rpk5uUzQ9qzvW-1" target="fxQP5-2Rpk5uUzQ9qzvW-169" edge="1">
                    <mxGeometry width="50" height="50" relative="1" as="geometry">
                        <mxPoint x="60" y="311" as="sourcePoint"/>
                        <mxPoint x="131.75" y="310.875" as="targetPoint"/>
                    </mxGeometry>
                </mxCell>
                <mxCell id="n8tdfDY55hou1CKn_ImN-78" value="" style="group" parent="fxQP5-2Rpk5uUzQ9qzvW-1" vertex="1" connectable="0">
                    <mxGeometry x="40" y="604.5" width="80" height="35" as="geometry"/>
                </mxCell>
                <mxCell id="fxQP5-2Rpk5uUzQ9qzvW-187" value="&lt;span style=&quot;color: rgb(255, 255, 255);&quot;&gt;roadmap.jsp&lt;/span&gt;" style="rounded=0;whiteSpace=wrap;html=1;labelBackgroundColor=none;fillStyle=auto;strokeColor=#F0F0F0;fontFamily=Helvetica;fontSize=10;fontColor=#007FFF;fillColor=#4D9900;" parent="n8tdfDY55hou1CKn_ImN-78" vertex="1">
                    <mxGeometry y="20" width="80" height="15" as="geometry"/>
                </mxCell>
                <mxCell id="fxQP5-2Rpk5uUzQ9qzvW-188" value="&lt;span style=&quot;font-size: 11px;&quot;&gt;JSP&lt;/span&gt;" style="text;strokeColor=none;align=left;fillColor=none;html=1;verticalAlign=middle;whiteSpace=wrap;rounded=0;labelBackgroundColor=none;fontSize=10;" parent="n8tdfDY55hou1CKn_ImN-78" vertex="1">
                    <mxGeometry x="25" width="30" height="20" as="geometry"/>
                </mxCell>
                <mxCell id="1775" value="" style="group" parent="fxQP5-2Rpk5uUzQ9qzvW-1" vertex="1" connectable="0">
                    <mxGeometry x="60" y="220" width="180" height="112.24" as="geometry"/>
                </mxCell>
                <mxCell id="1742" value="&lt;font color=&quot;#000000&quot;&gt;&lt;br&gt;&lt;/font&gt;" style="shape=callout;whiteSpace=wrap;html=1;perimeter=calloutPerimeter;fontSize=11;fillColor=#dae8fc;strokeColor=#6c8ebf;base=19;position2=0.47;size=30;position=0.47;align=left;rotation=90;" parent="1775" vertex="1">
                    <mxGeometry x="44.97" y="-47.14" width="62.48" height="159.38" as="geometry"/>
                </mxCell>
                <mxCell id="1743" value="roadmapId=(戻り値+1)として、Roadmapインスタンスに入力値など必要情報を格納&lt;br&gt;roadmapListに追加" style="text;strokeColor=none;align=left;fillColor=none;html=1;verticalAlign=middle;whiteSpace=wrap;rounded=0;labelBackgroundColor=none;fontSize=10;fontColor=#000000;" parent="1775" vertex="1">
                    <mxGeometry x="32.32" y="6.342279539909372" width="117.68" height="52.28302544440562" as="geometry"/>
                </mxCell>
                <mxCell id="1858" value="action=newRoadmap&lt;br&gt;roadmapName&lt;br&gt;parentCreateNum&lt;br&gt;parentName&lt;br&gt;childCreateNum&lt;br&gt;childName&lt;br&gt;childTag" style="text;strokeColor=#990000;align=center;fillColor=none;html=1;verticalAlign=middle;whiteSpace=wrap;rounded=0;labelBackgroundColor=none;fontSize=10;dashed=1;strokeWidth=2;perimeterSpacing=0;dashPattern=1 1;glass=1;" parent="fxQP5-2Rpk5uUzQ9qzvW-1" vertex="1">
                    <mxGeometry x="-190" y="177.63" width="100" height="85.75" as="geometry"/>
                </mxCell>
                <mxCell id="1859" value="POST" style="text;strokeColor=default;align=center;fillColor=none;html=1;verticalAlign=middle;whiteSpace=wrap;rounded=0;labelBackgroundColor=none;fontSize=10;" parent="fxQP5-2Rpk5uUzQ9qzvW-1" vertex="1">
                    <mxGeometry x="-160" y="153.4999999999999" width="30" height="15" as="geometry"/>
                </mxCell>
                <mxCell id="1871" value="&lt;font color=&quot;#ffffff&quot;&gt;S：&lt;br&gt;&lt;/font&gt;&lt;span style=&quot;color: rgb(255, 255, 255);&quot;&gt;&quot;userId&quot; UserIdインスタンス&lt;br&gt;&lt;/span&gt;&lt;span style=&quot;color: rgb(255, 255, 255);&quot;&gt;&quot;roadmaps&quot;&lt;/span&gt;&lt;span style=&quot;color: rgb(255, 255, 255);&quot;&gt;&amp;nbsp;Roadmapインスタンスのリスト&lt;/span&gt;&lt;span style=&quot;color: rgb(255, 255, 255);&quot;&gt;&lt;br&gt;&lt;/span&gt;" style="rounded=0;whiteSpace=wrap;html=1;labelBackgroundColor=none;fillStyle=auto;strokeColor=#F0F0F0;fontFamily=Helvetica;fontSize=10;fontColor=#007FFF;fillColor=#999900;align=left;" parent="fxQP5-2Rpk5uUzQ9qzvW-1" vertex="1">
                    <mxGeometry x="-260" y="275" width="233.5" height="35" as="geometry"/>
                </mxCell>
                <mxCell id="1872" value="" style="endArrow=async;html=1;rounded=0;shadow=1;labelBackgroundColor=default;strokeColor=#82b366;fontFamily=Helvetica;fontSize=10;fontColor=#FFFFFF;shape=connector;strokeWidth=1;startArrow=none;startFill=0;fillColor=#d5e8d4;jumpStyle=line;jumpSize=10;entryX=0.5;entryY=1;entryDx=0;entryDy=0;dashed=1;endFill=1;exitX=1;exitY=0.5;exitDx=0;exitDy=0;" parent="fxQP5-2Rpk5uUzQ9qzvW-1" source="1871" target="fxQP5-2Rpk5uUzQ9qzvW-137" edge="1">
                    <mxGeometry width="50" height="50" relative="1" as="geometry">
                        <mxPoint x="110" y="220" as="sourcePoint"/>
                        <mxPoint x="172" y="220.875" as="targetPoint"/>
                        <Array as="points">
                            <mxPoint x="40" y="293"/>
                        </Array>
                    </mxGeometry>
                </mxCell>
                <mxCell id="1873" value="取得" style="text;strokeColor=none;align=left;fillColor=none;html=1;verticalAlign=middle;whiteSpace=wrap;rounded=0;labelBackgroundColor=none;fontSize=10;" parent="fxQP5-2Rpk5uUzQ9qzvW-1" vertex="1">
                    <mxGeometry x="5" y="260" width="30" height="30" as="geometry"/>
                </mxCell>
                <mxCell id="1875" value="" style="group" parent="fxQP5-2Rpk5uUzQ9qzvW-1" vertex="1" connectable="0">
                    <mxGeometry x="280" y="350" width="107.93" height="40" as="geometry"/>
                </mxCell>
                <mxCell id="1876" value="&lt;span style=&quot;font-size: 11px;&quot;&gt;BO&lt;/span&gt;" style="text;strokeColor=none;align=left;fillColor=none;html=1;verticalAlign=middle;whiteSpace=wrap;rounded=0;labelBackgroundColor=none;fontSize=10;" parent="1875" vertex="1">
                    <mxGeometry x="35.94476310399711" width="38.6082606071787" height="20" as="geometry"/>
                </mxCell>
                <mxCell id="1877" value="&lt;span style=&quot;text-align: start;&quot;&gt;&lt;font face=&quot;monospace&quot; color=&quot;rgba(0, 0, 0, 0)&quot;&gt;&lt;span style=&quot;font-size: 0px;&quot;&gt;%3CmxGraphModel%3E%3Croot%3E%3CmxCell%20id%3D%220%22%2F%3E%3CmxCell%20id%3D%221%22%20parent%3D%220%22%2F%3E%3CmxCell%20id%3D%222%22%20value%3D%22%26lt%3Bfont%20color%3D%26quot%3B%23ffffff%26quot%3B%26gt%3BS%EF%BC%9A%26lt%3Bbr%26gt%3B%26lt%3B%2Ffont%26gt%3B%26lt%3Bspan%20style%3D%26quot%3Bcolor%3A%20rgb(255%2C%20255%2C%20255)%3B%26quot%3B%26gt%3B%26quot%3BuserId%26quot%3B%20%E3%83%A6%E3%83%BC%E3%82%B6%E3%83%BCID%26lt%3Bbr%26gt%3B%26lt%3B%2Fspan%26gt%3B%22%20style%3D%22rounded%3D0%3BwhiteSpace%3Dwrap%3Bhtml%3D1%3BlabelBackgroundColor%3Dnone%3BfillStyle%3Dauto%3BstrokeColor%3D%23F0F0F0%3BfontFamily%3DHelvetica%3BfontSize%3D10%3BfontColor%3D%23007FFF%3BfillColor%3D%23999900%3Balign%3Dleft%3B%22%20vertex%3D%221%22%20parent%3D%221%22%3E%3CmxGeometry%20x%3D%22116.5%22%20y%3D%222320%22%20width%3D%22103.5%22%20height%3D%2230%22%20as%3D%22geometry%22%2F%3E%3C%2FmxCell%3E%3C%2Froot%3E%3C%2FmxGraphModel%3Edaaaaaa&lt;/span&gt;&lt;/font&gt;&lt;/span&gt;&lt;span style=&quot;background-color: initial;&quot;&gt;RoadmapLogic&lt;/span&gt;&lt;span style=&quot;text-align: start;&quot;&gt;&lt;font face=&quot;monospace&quot; color=&quot;rgba(0, 0, 0, 0)&quot;&gt;&lt;span style=&quot;font-size: 0px;&quot;&gt;&lt;br&gt;&lt;/span&gt;&lt;/font&gt;&lt;/span&gt;&lt;font color=&quot;#ffffff&quot;&gt;createRoadmap()&lt;br&gt;&lt;/font&gt;" style="rounded=0;whiteSpace=wrap;html=1;labelBackgroundColor=none;fillStyle=auto;strokeColor=#3700CC;fontFamily=Helvetica;fontSize=10;fontColor=#ffffff;fillColor=#6a00ff;container=0;" parent="1875" vertex="1">
                    <mxGeometry y="20" width="107.92999999999999" height="25" as="geometry"/>
                </mxCell>
                <mxCell id="1878" style="edgeStyle=none;html=1;exitX=0;exitY=0.75;exitDx=0;exitDy=0;" parent="fxQP5-2Rpk5uUzQ9qzvW-1" source="1877" edge="1">
                    <mxGeometry relative="1" as="geometry">
                        <mxPoint x="60" y="389" as="targetPoint"/>
                    </mxGeometry>
                </mxCell>
                <mxCell id="1879" style="edgeStyle=none;html=1;entryX=0;entryY=0.25;entryDx=0;entryDy=0;" parent="fxQP5-2Rpk5uUzQ9qzvW-1" target="1877" edge="1">
                    <mxGeometry relative="1" as="geometry">
                        <mxPoint x="70" y="399" as="targetPoint"/>
                        <mxPoint x="60" y="376" as="sourcePoint"/>
                    </mxGeometry>
                </mxCell>
                <mxCell id="1880" value="" style="group" parent="fxQP5-2Rpk5uUzQ9qzvW-1" vertex="1" connectable="0">
                    <mxGeometry x="560" y="475" width="99.75" height="40" as="geometry"/>
                </mxCell>
                <mxCell id="1881" value="ParentElementsDAO&lt;br&gt;insertByRoadmap()" style="rounded=0;whiteSpace=wrap;html=1;labelBackgroundColor=none;fillStyle=auto;strokeColor=#6F0000;fontFamily=Helvetica;fontSize=10;fontColor=#ffffff;fillColor=#a20025;container=0;" parent="1880" vertex="1">
                    <mxGeometry y="20" width="99.75000000000003" height="25" as="geometry"/>
                </mxCell>
                <mxCell id="1882" value="&lt;span style=&quot;font-size: 11px;&quot;&gt;DAO&lt;/span&gt;" style="text;strokeColor=none;align=left;fillColor=none;html=1;verticalAlign=middle;whiteSpace=wrap;rounded=0;labelBackgroundColor=none;fontSize=10;" parent="1880" vertex="1">
                    <mxGeometry x="28.9484265734266" width="41.85314685314686" height="20" as="geometry"/>
                </mxCell>
                <mxCell id="1883" value="" style="group" parent="fxQP5-2Rpk5uUzQ9qzvW-1" vertex="1" connectable="0">
                    <mxGeometry x="560" y="350" width="99.75" height="40" as="geometry"/>
                </mxCell>
                <mxCell id="1884" value="RoadmapIdsDAO&lt;br&gt;insert()" style="rounded=0;whiteSpace=wrap;html=1;labelBackgroundColor=none;fillStyle=auto;strokeColor=#6F0000;fontFamily=Helvetica;fontSize=10;fontColor=#ffffff;fillColor=#a20025;container=0;" parent="1883" vertex="1">
                    <mxGeometry y="20" width="99.75000000000003" height="25" as="geometry"/>
                </mxCell>
                <mxCell id="1885" value="&lt;span style=&quot;font-size: 11px;&quot;&gt;DAO&lt;/span&gt;" style="text;strokeColor=none;align=left;fillColor=none;html=1;verticalAlign=middle;whiteSpace=wrap;rounded=0;labelBackgroundColor=none;fontSize=10;" parent="1883" vertex="1">
                    <mxGeometry x="28.9484265734266" width="41.85314685314686" height="20" as="geometry"/>
                </mxCell>
                <mxCell id="1889" value="" style="group" parent="fxQP5-2Rpk5uUzQ9qzvW-1" vertex="1" connectable="0">
                    <mxGeometry x="560" y="600" width="99.75" height="40" as="geometry"/>
                </mxCell>
                <mxCell id="1890" value="ChildElementsDAO&lt;br&gt;insertByRoadmap()" style="rounded=0;whiteSpace=wrap;html=1;labelBackgroundColor=none;fillStyle=auto;strokeColor=#6F0000;fontFamily=Helvetica;fontSize=10;fontColor=#ffffff;fillColor=#a20025;container=0;" parent="1889" vertex="1">
                    <mxGeometry y="20" width="99.75000000000003" height="25" as="geometry"/>
                </mxCell>
                <mxCell id="1891" value="&lt;span style=&quot;font-size: 11px;&quot;&gt;DAO&lt;/span&gt;" style="text;strokeColor=none;align=left;fillColor=none;html=1;verticalAlign=middle;whiteSpace=wrap;rounded=0;labelBackgroundColor=none;fontSize=10;" parent="1889" vertex="1">
                    <mxGeometry x="28.9484265734266" width="41.85314685314686" height="20" as="geometry"/>
                </mxCell>
                <mxCell id="1892" value="" style="group" parent="fxQP5-2Rpk5uUzQ9qzvW-1" vertex="1" connectable="0">
                    <mxGeometry x="743.75" y="462" width="73" height="111.75" as="geometry"/>
                </mxCell>
                <mxCell id="1893" value="" style="shape=cylinder3;whiteSpace=wrap;html=1;boundedLbl=1;backgroundOutline=1;size=15;fontSize=11;fillColor=#f5f5f5;fontColor=#333333;strokeColor=#666666;" parent="1892" vertex="1">
                    <mxGeometry x="6.5" y="5" width="60" height="80" as="geometry"/>
                </mxCell>
                <mxCell id="1894" value="&lt;span style=&quot;font-size: 11px;&quot;&gt;PARENT_ELEMENTS&lt;br&gt;テーブル&lt;br&gt;&lt;/span&gt;" style="text;strokeColor=none;align=center;fillColor=none;html=1;verticalAlign=middle;whiteSpace=wrap;rounded=0;labelBackgroundColor=none;fontSize=10;" parent="1892" vertex="1">
                    <mxGeometry y="87.75" width="73" height="20" as="geometry"/>
                </mxCell>
                <mxCell id="1896" value="" style="group" parent="fxQP5-2Rpk5uUzQ9qzvW-1" vertex="1" connectable="0">
                    <mxGeometry x="743.75" y="342" width="73" height="104" as="geometry"/>
                </mxCell>
                <mxCell id="1897" value="" style="shape=cylinder3;whiteSpace=wrap;html=1;boundedLbl=1;backgroundOutline=1;size=15;fontSize=11;fillColor=#f5f5f5;fontColor=#333333;strokeColor=#666666;" parent="1896" vertex="1">
                    <mxGeometry x="6.5" width="60" height="80" as="geometry"/>
                </mxCell>
                <mxCell id="1898" value="&lt;span style=&quot;font-size: 11px;&quot;&gt;ROADMAP_IDS&lt;br&gt;テーブル&lt;br&gt;&lt;/span&gt;" style="text;strokeColor=none;align=center;fillColor=none;html=1;verticalAlign=middle;whiteSpace=wrap;rounded=0;labelBackgroundColor=none;fontSize=10;" parent="1896" vertex="1">
                    <mxGeometry y="84" width="73" height="20" as="geometry"/>
                </mxCell>
                <mxCell id="1899" value="" style="group" parent="fxQP5-2Rpk5uUzQ9qzvW-1" vertex="1" connectable="0">
                    <mxGeometry x="744.75" y="592" width="73" height="107.75" as="geometry"/>
                </mxCell>
                <mxCell id="1900" value="" style="shape=cylinder3;whiteSpace=wrap;html=1;boundedLbl=1;backgroundOutline=1;size=15;fontSize=11;fillColor=#f5f5f5;fontColor=#333333;strokeColor=#666666;" parent="1899" vertex="1">
                    <mxGeometry x="6.5" width="60" height="80" as="geometry"/>
                </mxCell>
                <mxCell id="1901" value="&lt;span style=&quot;font-size: 11px;&quot;&gt;CHILD_ELEMENTS&lt;br&gt;テーブル&lt;br&gt;&lt;/span&gt;" style="text;strokeColor=none;align=center;fillColor=none;html=1;verticalAlign=middle;whiteSpace=wrap;rounded=0;labelBackgroundColor=none;fontSize=10;" parent="1899" vertex="1">
                    <mxGeometry y="87.75" width="73" height="20" as="geometry"/>
                </mxCell>
                <mxCell id="1905" value="" style="endArrow=classic;startArrow=classic;html=1;rounded=0;fontSize=10;jumpStyle=line;jumpSize=10;strokeWidth=3;exitX=1;exitY=0.5;exitDx=0;exitDy=0;entryX=0;entryY=0.5;entryDx=0;entryDy=0;entryPerimeter=0;" parent="fxQP5-2Rpk5uUzQ9qzvW-1" source="1884" target="1897" edge="1">
                    <mxGeometry width="50" height="50" relative="1" as="geometry">
                        <mxPoint x="710.0010373443984" y="372.5" as="sourcePoint"/>
                        <mxPoint x="709.25" y="392.25" as="targetPoint"/>
                    </mxGeometry>
                </mxCell>
                <mxCell id="1909" value="" style="endArrow=classic;startArrow=classic;html=1;rounded=0;fontSize=10;jumpStyle=line;jumpSize=10;strokeWidth=3;exitX=1;exitY=0.5;exitDx=0;exitDy=0;entryX=0;entryY=0.5;entryDx=0;entryDy=0;entryPerimeter=0;" parent="fxQP5-2Rpk5uUzQ9qzvW-1" source="1881" target="1893" edge="1">
                    <mxGeometry width="50" height="50" relative="1" as="geometry">
                        <mxPoint x="723.9400000000005" y="508" as="sourcePoint"/>
                        <mxPoint x="760.25" y="545" as="targetPoint"/>
                    </mxGeometry>
                </mxCell>
                <mxCell id="1922" value="" style="endArrow=classic;startArrow=classic;html=1;rounded=0;fontSize=10;jumpStyle=line;jumpSize=10;strokeWidth=3;exitX=1;exitY=0.5;exitDx=0;exitDy=0;entryX=0;entryY=0.5;entryDx=0;entryDy=0;entryPerimeter=0;" parent="fxQP5-2Rpk5uUzQ9qzvW-1" source="1890" target="1900" edge="1">
                    <mxGeometry width="50" height="50" relative="1" as="geometry">
                        <mxPoint x="720.1299999999997" y="632.5" as="sourcePoint"/>
                        <mxPoint x="790.25" y="660" as="targetPoint"/>
                    </mxGeometry>
                </mxCell>
                <mxCell id="1923" value="&lt;span style=&quot;font-size: 11px;&quot;&gt;Roadmap&lt;/span&gt;" style="text;strokeColor=none;align=left;fillColor=none;html=1;verticalAlign=middle;whiteSpace=wrap;rounded=0;labelBackgroundColor=none;fontSize=10;" parent="fxQP5-2Rpk5uUzQ9qzvW-1" vertex="1">
                    <mxGeometry x="150.75" y="354" width="56.5" height="20" as="geometry"/>
                </mxCell>
                <mxCell id="1925" value="&lt;span style=&quot;font-size: 11px;&quot;&gt;処理完了：true&lt;br&gt;処理未完了：false&lt;br&gt;&lt;/span&gt;" style="text;strokeColor=none;align=left;fillColor=none;html=1;verticalAlign=middle;whiteSpace=wrap;rounded=0;labelBackgroundColor=none;fontSize=10;" parent="fxQP5-2Rpk5uUzQ9qzvW-1" vertex="1">
                    <mxGeometry x="140" y="400" width="96.5" height="20" as="geometry"/>
                </mxCell>
                <mxCell id="1926" style="edgeStyle=none;html=1;exitX=1;exitY=0.25;exitDx=0;exitDy=0;entryX=0;entryY=0.25;entryDx=0;entryDy=0;" parent="fxQP5-2Rpk5uUzQ9qzvW-1" source="1877" target="1884" edge="1">
                    <mxGeometry relative="1" as="geometry"/>
                </mxCell>
                <mxCell id="1927" style="edgeStyle=none;html=1;exitX=0;exitY=0.75;exitDx=0;exitDy=0;entryX=1;entryY=0.75;entryDx=0;entryDy=0;" parent="fxQP5-2Rpk5uUzQ9qzvW-1" source="1884" target="1877" edge="1">
                    <mxGeometry relative="1" as="geometry"/>
                </mxCell>
                <mxCell id="1928" style="edgeStyle=none;html=1;exitX=0.75;exitY=1;exitDx=0;exitDy=0;entryX=0;entryY=0.25;entryDx=0;entryDy=0;rounded=0;" parent="fxQP5-2Rpk5uUzQ9qzvW-1" source="1877" target="1881" edge="1">
                    <mxGeometry relative="1" as="geometry">
                        <Array as="points">
                            <mxPoint x="360" y="501"/>
                        </Array>
                    </mxGeometry>
                </mxCell>
                <mxCell id="1929" style="edgeStyle=none;html=1;exitX=0;exitY=0.75;exitDx=0;exitDy=0;entryX=0.613;entryY=0.96;entryDx=0;entryDy=0;entryPerimeter=0;rounded=0;" parent="fxQP5-2Rpk5uUzQ9qzvW-1" source="1881" target="1877" edge="1">
                    <mxGeometry relative="1" as="geometry">
                        <Array as="points">
                            <mxPoint x="346" y="514"/>
                        </Array>
                    </mxGeometry>
                </mxCell>
                <mxCell id="1930" style="edgeStyle=none;rounded=0;html=1;exitX=0;exitY=0.25;exitDx=0;exitDy=0;entryX=0.25;entryY=1;entryDx=0;entryDy=0;" parent="fxQP5-2Rpk5uUzQ9qzvW-1" source="1890" target="1877" edge="1">
                    <mxGeometry relative="1" as="geometry">
                        <Array as="points">
                            <mxPoint x="310" y="626"/>
                        </Array>
                    </mxGeometry>
                </mxCell>
                <mxCell id="1931" style="edgeStyle=none;rounded=0;html=1;entryX=0;entryY=0.75;entryDx=0;entryDy=0;exitX=0.15;exitY=1.027;exitDx=0;exitDy=0;exitPerimeter=0;" parent="fxQP5-2Rpk5uUzQ9qzvW-1" source="1877" target="1890" edge="1">
                    <mxGeometry relative="1" as="geometry">
                        <mxPoint x="300" y="400" as="sourcePoint"/>
                        <Array as="points">
                            <mxPoint x="300" y="640"/>
                        </Array>
                    </mxGeometry>
                </mxCell>
                <mxCell id="1932" value="&lt;span style=&quot;font-size: 11px;&quot;&gt;RoadmapId&lt;/span&gt;" style="text;strokeColor=none;align=left;fillColor=none;html=1;verticalAlign=middle;whiteSpace=wrap;rounded=0;labelBackgroundColor=none;fontSize=10;" parent="fxQP5-2Rpk5uUzQ9qzvW-1" vertex="1">
                    <mxGeometry x="448.11" y="354" width="56.5" height="20" as="geometry"/>
                </mxCell>
                <mxCell id="1933" value="&lt;span style=&quot;font-size: 11px;&quot;&gt;ArrayList&lt;br&gt;&amp;lt;ParentElement&amp;gt;&lt;/span&gt;" style="text;strokeColor=none;align=left;fillColor=none;html=1;verticalAlign=middle;whiteSpace=wrap;rounded=0;labelBackgroundColor=none;fontSize=10;" parent="fxQP5-2Rpk5uUzQ9qzvW-1" vertex="1">
                    <mxGeometry x="440" y="475" width="89.92" height="20" as="geometry"/>
                </mxCell>
                <mxCell id="1934" value="&lt;span style=&quot;font-size: 11px;&quot;&gt;ArrayList&lt;br&gt;&amp;lt;ChildElement&amp;gt;&lt;/span&gt;" style="text;strokeColor=none;align=left;fillColor=none;html=1;verticalAlign=middle;whiteSpace=wrap;rounded=0;labelBackgroundColor=none;fontSize=10;" parent="fxQP5-2Rpk5uUzQ9qzvW-1" vertex="1">
                    <mxGeometry x="445.05" y="601" width="89.92" height="20" as="geometry"/>
                </mxCell>
                <mxCell id="1935" value="&lt;span style=&quot;font-size: 11px;&quot;&gt;処理件数&lt;/span&gt;" style="text;strokeColor=none;align=left;fillColor=none;html=1;verticalAlign=middle;whiteSpace=wrap;rounded=0;labelBackgroundColor=none;fontSize=10;" parent="fxQP5-2Rpk5uUzQ9qzvW-1" vertex="1">
                    <mxGeometry x="448.11" y="400" width="56.5" height="20" as="geometry"/>
                </mxCell>
                <mxCell id="1936" value="&lt;span style=&quot;font-size: 11px;&quot;&gt;処理件数&lt;/span&gt;" style="text;strokeColor=none;align=left;fillColor=none;html=1;verticalAlign=middle;whiteSpace=wrap;rounded=0;labelBackgroundColor=none;fontSize=10;" parent="fxQP5-2Rpk5uUzQ9qzvW-1" vertex="1">
                    <mxGeometry x="449.34000000000003" y="643" width="56.5" height="20" as="geometry"/>
                </mxCell>
                <mxCell id="1937" value="" style="group" parent="fxQP5-2Rpk5uUzQ9qzvW-1" vertex="1" connectable="0">
                    <mxGeometry x="580" y="430" width="136.31" height="68.25" as="geometry"/>
                </mxCell>
                <mxCell id="1938" value="&lt;font color=&quot;#000000&quot;&gt;&lt;br&gt;&lt;/font&gt;" style="shape=callout;whiteSpace=wrap;html=1;perimeter=calloutPerimeter;fontSize=11;fillColor=#dae8fc;strokeColor=#6c8ebf;base=13;position2=0.47;size=30;position=0.47;align=left;" parent="1937" vertex="1">
                    <mxGeometry y="1.664634146341463" width="129.4945" height="66.58536585365853" as="geometry"/>
                </mxCell>
                <mxCell id="1939" value="リストの要素数分だけINSERT文を繰り返す" style="text;strokeColor=none;align=left;fillColor=none;html=1;verticalAlign=middle;whiteSpace=wrap;rounded=0;labelBackgroundColor=none;fontSize=10;fontColor=#000000;" parent="1937" vertex="1">
                    <mxGeometry y="0.7413738019169331" width="127.22266666666665" height="44.386485623003196" as="geometry"/>
                </mxCell>
                <mxCell id="1940" value="" style="group" parent="fxQP5-2Rpk5uUzQ9qzvW-1" vertex="1" connectable="0">
                    <mxGeometry x="590" y="550" width="136.31" height="68.25" as="geometry"/>
                </mxCell>
                <mxCell id="1941" value="&lt;font color=&quot;#000000&quot;&gt;&lt;br&gt;&lt;/font&gt;" style="shape=callout;whiteSpace=wrap;html=1;perimeter=calloutPerimeter;fontSize=11;fillColor=#dae8fc;strokeColor=#6c8ebf;base=13;position2=0.47;size=30;position=0.47;align=left;" parent="1940" vertex="1">
                    <mxGeometry y="1.664634146341463" width="129.4945" height="66.58536585365853" as="geometry"/>
                </mxCell>
                <mxCell id="1942" value="リストの要素数分だけINSERT文を繰り返す" style="text;strokeColor=none;align=left;fillColor=none;html=1;verticalAlign=middle;whiteSpace=wrap;rounded=0;labelBackgroundColor=none;fontSize=10;fontColor=#000000;" parent="1940" vertex="1">
                    <mxGeometry y="0.7413738019169331" width="127.22266666666665" height="44.386485623003196" as="geometry"/>
                </mxCell>
                <mxCell id="1948" value="&lt;span style=&quot;font-size: 11px;&quot;&gt;処理件数&lt;/span&gt;" style="text;strokeColor=none;align=left;fillColor=none;html=1;verticalAlign=middle;whiteSpace=wrap;rounded=0;labelBackgroundColor=none;fontSize=10;" parent="fxQP5-2Rpk5uUzQ9qzvW-1" vertex="1">
                    <mxGeometry x="448.05" y="520" width="56.5" height="20" as="geometry"/>
                </mxCell>
                <mxCell id="1949" value="" style="endArrow=async;html=1;rounded=0;shadow=1;labelBackgroundColor=default;strokeColor=#82b366;fontFamily=Helvetica;fontSize=10;fontColor=#FFFFFF;shape=connector;strokeWidth=1;startArrow=none;startFill=0;fillColor=#d5e8d4;jumpStyle=line;jumpSize=10;entryX=1;entryY=0.5;entryDx=0;entryDy=0;dashed=1;endFill=1;exitX=0.122;exitY=1;exitDx=0;exitDy=0;exitPerimeter=0;" parent="fxQP5-2Rpk5uUzQ9qzvW-1" source="fxQP5-2Rpk5uUzQ9qzvW-169" target="fxQP5-2Rpk5uUzQ9qzvW-187" edge="1">
                    <mxGeometry width="50" height="50" relative="1" as="geometry">
                        <mxPoint x="250" y="340" as="sourcePoint"/>
                        <mxPoint x="252" y="420.875" as="targetPoint"/>
                        <Array as="points">
                            <mxPoint x="250" y="632"/>
                        </Array>
                    </mxGeometry>
                </mxCell>
            </root>
        </mxGraphModel>
    </diagram>
</mxfile>